<mxfile host="Electron" modified="2024-11-29T21:19:02.686Z" agent="Mozilla/5.0 (Windows NT 10.0; Win64; x64) AppleWebKit/537.36 (KHTML, like Gecko) draw.io/22.1.16 Chrome/120.0.6099.109 Electron/28.1.0 Safari/537.36" version="22.1.16" etag="pSZ-Ij78V-lix-x1wBtT" type="device">
  <diagram id="dKds4s6MgZ9QgduWamYZ" name="Page-1">
    <mxGraphModel dx="3810" dy="1731" grid="1" gridSize="10" guides="1" tooltips="1" connect="1" arrows="1" fold="1" page="1" pageScale="1" pageWidth="850" pageHeight="1100" math="0" shadow="0">
      <root>
        <mxCell id="0" />
        <mxCell id="1" parent="0" />
        <mxCell id="JqnVkKPBpULJKnfOZd3K-180" value="" style="group;movable=0;resizable=0;rotatable=0;deletable=0;editable=0;locked=1;connectable=0;" vertex="1" connectable="0" parent="1">
          <mxGeometry x="30" y="1240" width="720" height="340" as="geometry" />
        </mxCell>
        <mxCell id="JqnVkKPBpULJKnfOZd3K-145" value="&lt;h1&gt;&lt;font style=&quot;font-size: 30px;&quot;&gt;Prediction Pipeline&lt;/font&gt;&lt;/h1&gt;&lt;div&gt;&lt;i&gt;&lt;font color=&quot;#00cc66&quot;&gt;prediction_pipeline.py&lt;/font&gt;&lt;/i&gt;&lt;/div&gt;" style="rounded=0;whiteSpace=wrap;html=1;verticalAlign=top;container=0;movable=0;resizable=0;rotatable=0;deletable=0;editable=0;locked=1;connectable=0;" vertex="1" parent="JqnVkKPBpULJKnfOZd3K-180">
          <mxGeometry width="720" height="340" as="geometry" />
        </mxCell>
        <mxCell id="JqnVkKPBpULJKnfOZd3K-148" value="File system" style="sketch=0;outlineConnect=0;dashed=0;verticalLabelPosition=bottom;verticalAlign=top;align=center;html=1;fontSize=12;fontStyle=0;aspect=fixed;pointerEvents=1;shape=mxgraph.aws4.file_system;fillColor=#000000;strokeColor=#82b366;movable=0;resizable=0;rotatable=0;deletable=0;editable=0;locked=1;connectable=0;container=0;" vertex="1" parent="JqnVkKPBpULJKnfOZd3K-180">
          <mxGeometry x="20" y="140" width="78" height="73" as="geometry" />
        </mxCell>
        <mxCell id="JqnVkKPBpULJKnfOZd3K-152" value="Load global best model" style="rounded=0;whiteSpace=wrap;html=1;container=0;movable=0;resizable=0;rotatable=0;deletable=0;editable=0;locked=1;connectable=0;" vertex="1" parent="JqnVkKPBpULJKnfOZd3K-180">
          <mxGeometry x="130" y="194.5" width="90" height="60" as="geometry" />
        </mxCell>
        <mxCell id="JqnVkKPBpULJKnfOZd3K-178" style="edgeStyle=orthogonalEdgeStyle;rounded=0;orthogonalLoop=1;jettySize=auto;html=1;entryX=0;entryY=0.5;entryDx=0;entryDy=0;movable=0;resizable=0;rotatable=0;deletable=0;editable=0;locked=1;connectable=0;" edge="1" parent="JqnVkKPBpULJKnfOZd3K-180" source="JqnVkKPBpULJKnfOZd3K-148" target="JqnVkKPBpULJKnfOZd3K-152">
          <mxGeometry relative="1" as="geometry" />
        </mxCell>
        <mxCell id="JqnVkKPBpULJKnfOZd3K-153" value="Load transformers" style="rounded=0;whiteSpace=wrap;html=1;container=0;movable=0;resizable=0;rotatable=0;deletable=0;editable=0;locked=1;connectable=0;" vertex="1" parent="JqnVkKPBpULJKnfOZd3K-180">
          <mxGeometry x="130" y="100" width="90" height="60" as="geometry" />
        </mxCell>
        <mxCell id="JqnVkKPBpULJKnfOZd3K-177" style="edgeStyle=orthogonalEdgeStyle;rounded=0;orthogonalLoop=1;jettySize=auto;html=1;entryX=0;entryY=0.5;entryDx=0;entryDy=0;movable=0;resizable=0;rotatable=0;deletable=0;editable=0;locked=1;connectable=0;" edge="1" parent="JqnVkKPBpULJKnfOZd3K-180" source="JqnVkKPBpULJKnfOZd3K-148" target="JqnVkKPBpULJKnfOZd3K-153">
          <mxGeometry relative="1" as="geometry" />
        </mxCell>
        <mxCell id="JqnVkKPBpULJKnfOZd3K-154" value="Transformers" style="rounded=0;whiteSpace=wrap;html=1;container=0;movable=0;resizable=0;rotatable=0;deletable=0;editable=0;locked=1;connectable=0;" vertex="1" parent="JqnVkKPBpULJKnfOZd3K-180">
          <mxGeometry x="270" y="100" width="90" height="60" as="geometry" />
        </mxCell>
        <mxCell id="JqnVkKPBpULJKnfOZd3K-161" value="" style="edgeStyle=orthogonalEdgeStyle;rounded=0;orthogonalLoop=1;jettySize=auto;html=1;movable=0;resizable=0;rotatable=0;deletable=0;editable=0;locked=1;connectable=0;" edge="1" parent="JqnVkKPBpULJKnfOZd3K-180" source="JqnVkKPBpULJKnfOZd3K-153" target="JqnVkKPBpULJKnfOZd3K-154">
          <mxGeometry relative="1" as="geometry" />
        </mxCell>
        <mxCell id="JqnVkKPBpULJKnfOZd3K-155" value="Model" style="rounded=0;whiteSpace=wrap;html=1;container=0;movable=0;resizable=0;rotatable=0;deletable=0;editable=0;locked=1;connectable=0;" vertex="1" parent="JqnVkKPBpULJKnfOZd3K-180">
          <mxGeometry x="270" y="194.5" width="90" height="60" as="geometry" />
        </mxCell>
        <mxCell id="JqnVkKPBpULJKnfOZd3K-162" value="" style="edgeStyle=orthogonalEdgeStyle;rounded=0;orthogonalLoop=1;jettySize=auto;html=1;movable=0;resizable=0;rotatable=0;deletable=0;editable=0;locked=1;connectable=0;" edge="1" parent="JqnVkKPBpULJKnfOZd3K-180" source="JqnVkKPBpULJKnfOZd3K-152" target="JqnVkKPBpULJKnfOZd3K-155">
          <mxGeometry relative="1" as="geometry" />
        </mxCell>
        <mxCell id="JqnVkKPBpULJKnfOZd3K-160" value="" style="edgeStyle=orthogonalEdgeStyle;rounded=0;orthogonalLoop=1;jettySize=auto;html=1;movable=0;resizable=0;rotatable=0;deletable=0;editable=0;locked=1;connectable=0;" edge="1" parent="JqnVkKPBpULJKnfOZd3K-180" source="JqnVkKPBpULJKnfOZd3K-154" target="JqnVkKPBpULJKnfOZd3K-155">
          <mxGeometry relative="1" as="geometry" />
        </mxCell>
        <mxCell id="JqnVkKPBpULJKnfOZd3K-164" value="Transformed data" style="edgeLabel;html=1;align=center;verticalAlign=middle;resizable=0;points=[];container=0;movable=0;rotatable=0;deletable=0;editable=0;locked=1;connectable=0;" vertex="1" connectable="0" parent="JqnVkKPBpULJKnfOZd3K-160">
          <mxGeometry x="-0.4637" y="-1" relative="1" as="geometry">
            <mxPoint y="3" as="offset" />
          </mxGeometry>
        </mxCell>
        <mxCell id="JqnVkKPBpULJKnfOZd3K-159" value="" style="edgeStyle=orthogonalEdgeStyle;rounded=0;orthogonalLoop=1;jettySize=auto;html=1;movable=0;resizable=0;rotatable=0;deletable=0;editable=0;locked=1;connectable=0;" edge="1" parent="JqnVkKPBpULJKnfOZd3K-180" source="JqnVkKPBpULJKnfOZd3K-158" target="JqnVkKPBpULJKnfOZd3K-154">
          <mxGeometry relative="1" as="geometry" />
        </mxCell>
        <mxCell id="JqnVkKPBpULJKnfOZd3K-163" value="Data" style="edgeLabel;html=1;align=center;verticalAlign=middle;resizable=0;points=[];container=0;movable=0;rotatable=0;deletable=0;editable=0;locked=1;connectable=0;" vertex="1" connectable="0" parent="JqnVkKPBpULJKnfOZd3K-159">
          <mxGeometry x="-0.0364" y="1" relative="1" as="geometry">
            <mxPoint as="offset" />
          </mxGeometry>
        </mxCell>
        <mxCell id="JqnVkKPBpULJKnfOZd3K-158" value="" style="sketch=0;outlineConnect=0;fontColor=#232F3E;gradientColor=none;fillColor=#232F3D;strokeColor=none;dashed=0;verticalLabelPosition=bottom;verticalAlign=top;align=center;html=1;fontSize=12;fontStyle=0;aspect=fixed;pointerEvents=1;shape=mxgraph.aws4.data_stream;flipH=1;flipV=1;container=0;movable=0;resizable=0;rotatable=0;deletable=0;editable=0;locked=1;connectable=0;" vertex="1" parent="JqnVkKPBpULJKnfOZd3K-180">
          <mxGeometry x="470" y="91" width="78" height="78" as="geometry" />
        </mxCell>
        <mxCell id="JqnVkKPBpULJKnfOZd3K-165" value="Result" style="shape=parallelogram;perimeter=parallelogramPerimeter;whiteSpace=wrap;html=1;dashed=0;container=0;movable=0;resizable=0;rotatable=0;deletable=0;editable=0;locked=1;connectable=0;" vertex="1" parent="JqnVkKPBpULJKnfOZd3K-180">
          <mxGeometry x="459" y="199" width="100" height="50" as="geometry" />
        </mxCell>
        <mxCell id="JqnVkKPBpULJKnfOZd3K-166" value="" style="edgeStyle=orthogonalEdgeStyle;rounded=0;orthogonalLoop=1;jettySize=auto;html=1;movable=0;resizable=0;rotatable=0;deletable=0;editable=0;locked=1;connectable=0;" edge="1" parent="JqnVkKPBpULJKnfOZd3K-180" source="JqnVkKPBpULJKnfOZd3K-155" target="JqnVkKPBpULJKnfOZd3K-165">
          <mxGeometry relative="1" as="geometry" />
        </mxCell>
        <mxCell id="JqnVkKPBpULJKnfOZd3K-167" value="Prediction" style="edgeLabel;html=1;align=center;verticalAlign=middle;resizable=0;points=[];container=0;movable=0;rotatable=0;deletable=0;editable=0;locked=1;connectable=0;" vertex="1" connectable="0" parent="JqnVkKPBpULJKnfOZd3K-166">
          <mxGeometry x="0.0137" relative="1" as="geometry">
            <mxPoint as="offset" />
          </mxGeometry>
        </mxCell>
        <mxCell id="JqnVkKPBpULJKnfOZd3K-174" style="edgeStyle=orthogonalEdgeStyle;rounded=0;orthogonalLoop=1;jettySize=auto;html=1;movable=0;resizable=0;rotatable=0;deletable=0;editable=0;locked=1;connectable=0;" edge="1" parent="JqnVkKPBpULJKnfOZd3K-180" source="JqnVkKPBpULJKnfOZd3K-170" target="JqnVkKPBpULJKnfOZd3K-158">
          <mxGeometry relative="1" as="geometry" />
        </mxCell>
        <mxCell id="JqnVkKPBpULJKnfOZd3K-175" value="Input" style="edgeLabel;html=1;align=center;verticalAlign=middle;resizable=0;points=[];container=0;movable=0;rotatable=0;deletable=0;editable=0;locked=1;connectable=0;" vertex="1" connectable="0" parent="JqnVkKPBpULJKnfOZd3K-174">
          <mxGeometry x="-0.0524" y="1" relative="1" as="geometry">
            <mxPoint as="offset" />
          </mxGeometry>
        </mxCell>
        <mxCell id="JqnVkKPBpULJKnfOZd3K-170" value="" style="aspect=fixed;sketch=0;html=1;dashed=0;whitespace=wrap;fillColor=#000000;strokeColor=#ffffff;points=[[0.005,0.63,0],[0.1,0.2,0],[0.9,0.2,0],[0.5,0,0],[0.995,0.63,0],[0.72,0.99,0],[0.5,1,0],[0.28,0.99,0]];shape=mxgraph.kubernetes.icon2;prIcon=api;verticalAlign=bottom;container=0;movable=0;resizable=0;rotatable=0;deletable=0;editable=0;locked=1;connectable=0;" vertex="1" parent="JqnVkKPBpULJKnfOZd3K-180">
          <mxGeometry x="600" y="127" width="92.71" height="89" as="geometry" />
        </mxCell>
        <mxCell id="JqnVkKPBpULJKnfOZd3K-171" value="Flask App" style="text;html=1;strokeColor=none;fillColor=none;align=center;verticalAlign=middle;whiteSpace=wrap;rounded=0;container=0;movable=0;resizable=0;rotatable=0;deletable=0;editable=0;locked=1;connectable=0;" vertex="1" parent="JqnVkKPBpULJKnfOZd3K-180">
          <mxGeometry x="616.3499999999999" y="219" width="60" height="30" as="geometry" />
        </mxCell>
        <mxCell id="JqnVkKPBpULJKnfOZd3K-172" style="edgeStyle=orthogonalEdgeStyle;rounded=0;orthogonalLoop=1;jettySize=auto;html=1;entryX=0.005;entryY=0.63;entryDx=0;entryDy=0;entryPerimeter=0;movable=0;resizable=0;rotatable=0;deletable=0;editable=0;locked=1;connectable=0;" edge="1" parent="JqnVkKPBpULJKnfOZd3K-180" source="JqnVkKPBpULJKnfOZd3K-165" target="JqnVkKPBpULJKnfOZd3K-170">
          <mxGeometry relative="1" as="geometry" />
        </mxCell>
        <mxCell id="JqnVkKPBpULJKnfOZd3K-176" value="Output" style="edgeLabel;html=1;align=center;verticalAlign=middle;resizable=0;points=[];container=0;movable=0;rotatable=0;deletable=0;editable=0;locked=1;connectable=0;" vertex="1" connectable="0" parent="JqnVkKPBpULJKnfOZd3K-172">
          <mxGeometry x="0.0242" y="1" relative="1" as="geometry">
            <mxPoint as="offset" />
          </mxGeometry>
        </mxCell>
        <mxCell id="JqnVkKPBpULJKnfOZd3K-181" value="" style="group;movable=0;resizable=0;rotatable=0;deletable=0;editable=0;locked=1;connectable=0;" vertex="1" connectable="0" parent="1">
          <mxGeometry x="-110" y="850" width="680" height="340" as="geometry" />
        </mxCell>
        <mxCell id="JqnVkKPBpULJKnfOZd3K-92" value="&lt;h1&gt;&lt;font style=&quot;font-size: 30px;&quot;&gt;Training Pipeline&lt;/font&gt;&lt;/h1&gt;&lt;div&gt;&lt;i&gt;&lt;font color=&quot;#00cc66&quot;&gt;training_pipeline.py, model_trainer.py&lt;/font&gt;&lt;/i&gt;&lt;/div&gt;" style="rounded=0;whiteSpace=wrap;html=1;verticalAlign=top;movable=0;resizable=0;rotatable=0;deletable=0;editable=0;locked=1;connectable=0;" vertex="1" parent="JqnVkKPBpULJKnfOZd3K-181">
          <mxGeometry width="680" height="340" as="geometry" />
        </mxCell>
        <mxCell id="JqnVkKPBpULJKnfOZd3K-122" value="&lt;h5&gt;Grid Search Hyperparameter&lt;/h5&gt;" style="rounded=0;whiteSpace=wrap;html=1;verticalAlign=top;movable=0;resizable=0;rotatable=0;deletable=0;editable=0;locked=1;connectable=0;" vertex="1" parent="JqnVkKPBpULJKnfOZd3K-181">
          <mxGeometry x="240" y="90" width="140" height="240" as="geometry" />
        </mxCell>
        <mxCell id="JqnVkKPBpULJKnfOZd3K-111" value="Load training features" style="rounded=0;whiteSpace=wrap;html=1;movable=0;resizable=0;rotatable=0;deletable=0;editable=0;locked=1;connectable=0;" vertex="1" parent="JqnVkKPBpULJKnfOZd3K-181">
          <mxGeometry x="140" y="130" width="90" height="60" as="geometry" />
        </mxCell>
        <mxCell id="JqnVkKPBpULJKnfOZd3K-139" style="edgeStyle=orthogonalEdgeStyle;rounded=0;orthogonalLoop=1;jettySize=auto;html=1;entryX=0;entryY=0.5;entryDx=0;entryDy=0;movable=0;resizable=0;rotatable=0;deletable=0;editable=0;locked=1;connectable=0;" edge="1" parent="JqnVkKPBpULJKnfOZd3K-181" source="JqnVkKPBpULJKnfOZd3K-112" target="JqnVkKPBpULJKnfOZd3K-111">
          <mxGeometry relative="1" as="geometry" />
        </mxCell>
        <mxCell id="JqnVkKPBpULJKnfOZd3K-112" value="File system" style="sketch=0;outlineConnect=0;dashed=0;verticalLabelPosition=bottom;verticalAlign=top;align=center;html=1;fontSize=12;fontStyle=0;aspect=fixed;pointerEvents=1;shape=mxgraph.aws4.file_system;fillColor=#000000;strokeColor=#82b366;movable=0;resizable=0;rotatable=0;deletable=0;editable=0;locked=1;connectable=0;" vertex="1" parent="JqnVkKPBpULJKnfOZd3K-181">
          <mxGeometry x="10" y="181.5" width="78" height="73" as="geometry" />
        </mxCell>
        <mxCell id="JqnVkKPBpULJKnfOZd3K-119" style="edgeStyle=orthogonalEdgeStyle;rounded=0;orthogonalLoop=1;jettySize=auto;html=1;exitX=0.25;exitY=1;exitDx=0;exitDy=0;entryX=0.25;entryY=0;entryDx=0;entryDy=0;movable=0;resizable=0;rotatable=0;deletable=0;editable=0;locked=1;connectable=0;" edge="1" parent="JqnVkKPBpULJKnfOZd3K-181">
          <mxGeometry relative="1" as="geometry">
            <mxPoint x="276.5" y="190" as="sourcePoint" />
            <mxPoint x="276.5" y="243" as="targetPoint" />
          </mxGeometry>
        </mxCell>
        <mxCell id="JqnVkKPBpULJKnfOZd3K-113" value="Train Model" style="rounded=0;whiteSpace=wrap;html=1;movable=0;resizable=0;rotatable=0;deletable=0;editable=0;locked=1;connectable=0;" vertex="1" parent="JqnVkKPBpULJKnfOZd3K-181">
          <mxGeometry x="265" y="130" width="90" height="60" as="geometry" />
        </mxCell>
        <mxCell id="JqnVkKPBpULJKnfOZd3K-116" style="edgeStyle=orthogonalEdgeStyle;rounded=0;orthogonalLoop=1;jettySize=auto;html=1;movable=0;resizable=0;rotatable=0;deletable=0;editable=0;locked=1;connectable=0;" edge="1" parent="JqnVkKPBpULJKnfOZd3K-181" source="JqnVkKPBpULJKnfOZd3K-111" target="JqnVkKPBpULJKnfOZd3K-113">
          <mxGeometry relative="1" as="geometry" />
        </mxCell>
        <mxCell id="JqnVkKPBpULJKnfOZd3K-121" style="edgeStyle=orthogonalEdgeStyle;rounded=0;orthogonalLoop=1;jettySize=auto;html=1;exitX=0.75;exitY=0;exitDx=0;exitDy=0;entryX=0.75;entryY=1;entryDx=0;entryDy=0;movable=0;resizable=0;rotatable=0;deletable=0;editable=0;locked=1;connectable=0;" edge="1" parent="JqnVkKPBpULJKnfOZd3K-181">
          <mxGeometry relative="1" as="geometry">
            <mxPoint x="345.5" y="243" as="sourcePoint" />
            <mxPoint x="345.5" y="190" as="targetPoint" />
          </mxGeometry>
        </mxCell>
        <mxCell id="JqnVkKPBpULJKnfOZd3K-114" value="Evaluate Model" style="rounded=0;whiteSpace=wrap;html=1;movable=0;resizable=0;rotatable=0;deletable=0;editable=0;locked=1;connectable=0;" vertex="1" parent="JqnVkKPBpULJKnfOZd3K-181">
          <mxGeometry x="265" y="243" width="90" height="60" as="geometry" />
        </mxCell>
        <mxCell id="JqnVkKPBpULJKnfOZd3K-117" style="edgeStyle=orthogonalEdgeStyle;rounded=0;orthogonalLoop=1;jettySize=auto;html=1;movable=0;resizable=0;rotatable=0;deletable=0;editable=0;locked=1;connectable=0;" edge="1" parent="JqnVkKPBpULJKnfOZd3K-181" source="JqnVkKPBpULJKnfOZd3K-115" target="JqnVkKPBpULJKnfOZd3K-114">
          <mxGeometry relative="1" as="geometry" />
        </mxCell>
        <mxCell id="JqnVkKPBpULJKnfOZd3K-115" value="Load testing features" style="rounded=0;whiteSpace=wrap;html=1;movable=0;resizable=0;rotatable=0;deletable=0;editable=0;locked=1;connectable=0;" vertex="1" parent="JqnVkKPBpULJKnfOZd3K-181">
          <mxGeometry x="140" y="243" width="90" height="60" as="geometry" />
        </mxCell>
        <mxCell id="JqnVkKPBpULJKnfOZd3K-140" style="edgeStyle=orthogonalEdgeStyle;rounded=0;orthogonalLoop=1;jettySize=auto;html=1;entryX=0;entryY=0.5;entryDx=0;entryDy=0;movable=0;resizable=0;rotatable=0;deletable=0;editable=0;locked=1;connectable=0;" edge="1" parent="JqnVkKPBpULJKnfOZd3K-181" source="JqnVkKPBpULJKnfOZd3K-112" target="JqnVkKPBpULJKnfOZd3K-115">
          <mxGeometry relative="1" as="geometry" />
        </mxCell>
        <mxCell id="JqnVkKPBpULJKnfOZd3K-123" value="&lt;font style=&quot;font-size: 12px;&quot;&gt;Log metrics&lt;/font&gt;" style="rounded=0;whiteSpace=wrap;html=1;fillColor=none;movable=0;resizable=0;rotatable=0;deletable=0;editable=0;locked=1;connectable=0;" vertex="1" parent="JqnVkKPBpULJKnfOZd3K-181">
          <mxGeometry x="265" y="206" width="90" height="24" as="geometry" />
        </mxCell>
        <mxCell id="JqnVkKPBpULJKnfOZd3K-132" value="Best Models" style="rounded=0;whiteSpace=wrap;html=1;movable=0;resizable=0;rotatable=0;deletable=0;editable=0;locked=1;connectable=0;" vertex="1" parent="JqnVkKPBpULJKnfOZd3K-181">
          <mxGeometry x="420" y="130" width="120" height="60" as="geometry" />
        </mxCell>
        <mxCell id="JqnVkKPBpULJKnfOZd3K-134" style="edgeStyle=orthogonalEdgeStyle;rounded=0;orthogonalLoop=1;jettySize=auto;html=1;exitX=1;exitY=0.25;exitDx=0;exitDy=0;entryX=0;entryY=0.5;entryDx=0;entryDy=0;movable=0;resizable=0;rotatable=0;deletable=0;editable=0;locked=1;connectable=0;" edge="1" parent="JqnVkKPBpULJKnfOZd3K-181" source="JqnVkKPBpULJKnfOZd3K-122" target="JqnVkKPBpULJKnfOZd3K-132">
          <mxGeometry relative="1" as="geometry" />
        </mxCell>
        <mxCell id="JqnVkKPBpULJKnfOZd3K-133" value="Global best model" style="rounded=0;whiteSpace=wrap;html=1;movable=0;resizable=0;rotatable=0;deletable=0;editable=0;locked=1;connectable=0;" vertex="1" parent="JqnVkKPBpULJKnfOZd3K-181">
          <mxGeometry x="420" y="230" width="120" height="60" as="geometry" />
        </mxCell>
        <mxCell id="JqnVkKPBpULJKnfOZd3K-135" style="edgeStyle=orthogonalEdgeStyle;rounded=0;orthogonalLoop=1;jettySize=auto;html=1;exitX=1;exitY=0.75;exitDx=0;exitDy=0;entryX=0;entryY=0.5;entryDx=0;entryDy=0;movable=0;resizable=0;rotatable=0;deletable=0;editable=0;locked=1;connectable=0;" edge="1" parent="JqnVkKPBpULJKnfOZd3K-181" source="JqnVkKPBpULJKnfOZd3K-122" target="JqnVkKPBpULJKnfOZd3K-133">
          <mxGeometry relative="1" as="geometry" />
        </mxCell>
        <mxCell id="JqnVkKPBpULJKnfOZd3K-136" value="Model Registry" style="sketch=0;outlineConnect=0;fontColor=#232F3E;gradientColor=none;fillColor=#000000;strokeColor=none;dashed=0;verticalLabelPosition=bottom;verticalAlign=top;align=center;html=1;fontSize=12;fontStyle=0;aspect=fixed;pointerEvents=1;shape=mxgraph.aws4.registry;movable=0;resizable=0;rotatable=0;deletable=0;editable=0;locked=1;connectable=0;" vertex="1" parent="JqnVkKPBpULJKnfOZd3K-181">
          <mxGeometry x="590" y="121" width="78" height="78" as="geometry" />
        </mxCell>
        <mxCell id="JqnVkKPBpULJKnfOZd3K-137" style="edgeStyle=orthogonalEdgeStyle;rounded=0;orthogonalLoop=1;jettySize=auto;html=1;movable=0;resizable=0;rotatable=0;deletable=0;editable=0;locked=1;connectable=0;" edge="1" parent="JqnVkKPBpULJKnfOZd3K-181" source="JqnVkKPBpULJKnfOZd3K-132" target="JqnVkKPBpULJKnfOZd3K-136">
          <mxGeometry relative="1" as="geometry" />
        </mxCell>
        <mxCell id="JqnVkKPBpULJKnfOZd3K-138" style="rounded=0;orthogonalLoop=1;jettySize=auto;html=1;movable=0;resizable=0;rotatable=0;deletable=0;editable=0;locked=1;connectable=0;" edge="1" parent="JqnVkKPBpULJKnfOZd3K-181" source="JqnVkKPBpULJKnfOZd3K-133" target="JqnVkKPBpULJKnfOZd3K-136">
          <mxGeometry relative="1" as="geometry" />
        </mxCell>
        <mxCell id="JqnVkKPBpULJKnfOZd3K-146" value="File system" style="sketch=0;outlineConnect=0;dashed=0;verticalLabelPosition=bottom;verticalAlign=top;align=center;html=1;fontSize=12;fontStyle=0;aspect=fixed;pointerEvents=1;shape=mxgraph.aws4.file_system;fillColor=#000000;strokeColor=#82b366;movable=0;resizable=0;rotatable=0;deletable=0;editable=0;locked=1;connectable=0;" vertex="1" parent="JqnVkKPBpULJKnfOZd3K-181">
          <mxGeometry x="590" y="223.5" width="78" height="73" as="geometry" />
        </mxCell>
        <mxCell id="JqnVkKPBpULJKnfOZd3K-147" style="edgeStyle=orthogonalEdgeStyle;rounded=0;orthogonalLoop=1;jettySize=auto;html=1;movable=0;resizable=0;rotatable=0;deletable=0;editable=0;locked=1;connectable=0;" edge="1" parent="JqnVkKPBpULJKnfOZd3K-181" source="JqnVkKPBpULJKnfOZd3K-133" target="JqnVkKPBpULJKnfOZd3K-146">
          <mxGeometry relative="1" as="geometry" />
        </mxCell>
        <mxCell id="JqnVkKPBpULJKnfOZd3K-182" value="" style="group;movable=0;resizable=0;rotatable=0;deletable=0;editable=0;locked=1;connectable=0;" vertex="1" connectable="0" parent="1">
          <mxGeometry x="-250" y="470" width="730" height="340" as="geometry" />
        </mxCell>
        <mxCell id="JqnVkKPBpULJKnfOZd3K-21" value="&lt;h1&gt;&lt;font style=&quot;font-size: 30px;&quot;&gt;Data Transformation&lt;/font&gt;&lt;/h1&gt;&lt;div&gt;&lt;i&gt;&lt;font color=&quot;#00cc66&quot;&gt;data_transformation.py&lt;/font&gt;&lt;/i&gt;&lt;/div&gt;" style="rounded=0;whiteSpace=wrap;html=1;verticalAlign=top;container=0;movable=0;resizable=0;rotatable=0;deletable=0;editable=0;locked=1;connectable=0;" vertex="1" parent="JqnVkKPBpULJKnfOZd3K-182">
          <mxGeometry width="730" height="340" as="geometry" />
        </mxCell>
        <mxCell id="JqnVkKPBpULJKnfOZd3K-55" value="File system" style="sketch=0;outlineConnect=0;dashed=0;verticalLabelPosition=bottom;verticalAlign=top;align=center;html=1;fontSize=12;fontStyle=0;aspect=fixed;pointerEvents=1;shape=mxgraph.aws4.file_system;fillColor=#000000;strokeColor=#82b366;movable=0;resizable=0;rotatable=0;deletable=0;editable=0;locked=1;connectable=0;container=0;" vertex="1" parent="JqnVkKPBpULJKnfOZd3K-182">
          <mxGeometry x="28" y="163.5" width="78" height="73" as="geometry" />
        </mxCell>
        <mxCell id="JqnVkKPBpULJKnfOZd3K-72" value="Load train data" style="rounded=0;whiteSpace=wrap;html=1;container=0;movable=0;resizable=0;rotatable=0;deletable=0;editable=0;locked=1;connectable=0;" vertex="1" parent="JqnVkKPBpULJKnfOZd3K-182">
          <mxGeometry x="138" y="120" width="94.5" height="60" as="geometry" />
        </mxCell>
        <mxCell id="JqnVkKPBpULJKnfOZd3K-81" style="edgeStyle=orthogonalEdgeStyle;rounded=0;orthogonalLoop=1;jettySize=auto;html=1;entryX=0;entryY=0.5;entryDx=0;entryDy=0;movable=0;resizable=0;rotatable=0;deletable=0;editable=0;locked=1;connectable=0;" edge="1" parent="JqnVkKPBpULJKnfOZd3K-182" source="JqnVkKPBpULJKnfOZd3K-55" target="JqnVkKPBpULJKnfOZd3K-72">
          <mxGeometry relative="1" as="geometry" />
        </mxCell>
        <mxCell id="JqnVkKPBpULJKnfOZd3K-73" value="Apply transformation" style="rounded=0;whiteSpace=wrap;html=1;container=0;movable=0;resizable=0;rotatable=0;deletable=0;editable=0;locked=1;connectable=0;" vertex="1" parent="JqnVkKPBpULJKnfOZd3K-182">
          <mxGeometry x="258" y="220" width="94.5" height="60" as="geometry" />
        </mxCell>
        <mxCell id="JqnVkKPBpULJKnfOZd3K-86" value="" style="edgeStyle=orthogonalEdgeStyle;rounded=0;orthogonalLoop=1;jettySize=auto;html=1;movable=0;resizable=0;rotatable=0;deletable=0;editable=0;locked=1;connectable=0;" edge="1" parent="JqnVkKPBpULJKnfOZd3K-182" source="JqnVkKPBpULJKnfOZd3K-74" target="JqnVkKPBpULJKnfOZd3K-73">
          <mxGeometry relative="1" as="geometry" />
        </mxCell>
        <mxCell id="JqnVkKPBpULJKnfOZd3K-74" value="Load test data" style="rounded=0;whiteSpace=wrap;html=1;container=0;movable=0;resizable=0;rotatable=0;deletable=0;editable=0;locked=1;connectable=0;" vertex="1" parent="JqnVkKPBpULJKnfOZd3K-182">
          <mxGeometry x="138" y="220" width="94.5" height="60" as="geometry" />
        </mxCell>
        <mxCell id="JqnVkKPBpULJKnfOZd3K-82" style="edgeStyle=orthogonalEdgeStyle;rounded=0;orthogonalLoop=1;jettySize=auto;html=1;movable=0;resizable=0;rotatable=0;deletable=0;editable=0;locked=1;connectable=0;" edge="1" parent="JqnVkKPBpULJKnfOZd3K-182" source="JqnVkKPBpULJKnfOZd3K-55" target="JqnVkKPBpULJKnfOZd3K-74">
          <mxGeometry relative="1" as="geometry" />
        </mxCell>
        <mxCell id="JqnVkKPBpULJKnfOZd3K-75" value="Apply transformation" style="rounded=0;whiteSpace=wrap;html=1;container=0;movable=0;resizable=0;rotatable=0;deletable=0;editable=0;locked=1;connectable=0;" vertex="1" parent="JqnVkKPBpULJKnfOZd3K-182">
          <mxGeometry x="258" y="120" width="94.5" height="60" as="geometry" />
        </mxCell>
        <mxCell id="JqnVkKPBpULJKnfOZd3K-83" value="" style="edgeStyle=orthogonalEdgeStyle;rounded=0;orthogonalLoop=1;jettySize=auto;html=1;movable=0;resizable=0;rotatable=0;deletable=0;editable=0;locked=1;connectable=0;" edge="1" parent="JqnVkKPBpULJKnfOZd3K-182" source="JqnVkKPBpULJKnfOZd3K-72" target="JqnVkKPBpULJKnfOZd3K-75">
          <mxGeometry relative="1" as="geometry" />
        </mxCell>
        <mxCell id="JqnVkKPBpULJKnfOZd3K-76" value="Apply oversampling" style="rounded=0;whiteSpace=wrap;html=1;container=0;movable=0;resizable=0;rotatable=0;deletable=0;editable=0;locked=1;connectable=0;" vertex="1" parent="JqnVkKPBpULJKnfOZd3K-182">
          <mxGeometry x="378" y="120" width="94.5" height="60" as="geometry" />
        </mxCell>
        <mxCell id="JqnVkKPBpULJKnfOZd3K-84" value="" style="edgeStyle=orthogonalEdgeStyle;rounded=0;orthogonalLoop=1;jettySize=auto;html=1;movable=0;resizable=0;rotatable=0;deletable=0;editable=0;locked=1;connectable=0;" edge="1" parent="JqnVkKPBpULJKnfOZd3K-182" source="JqnVkKPBpULJKnfOZd3K-75" target="JqnVkKPBpULJKnfOZd3K-76">
          <mxGeometry relative="1" as="geometry" />
        </mxCell>
        <mxCell id="JqnVkKPBpULJKnfOZd3K-77" value="Train features" style="rounded=0;whiteSpace=wrap;html=1;container=0;movable=0;resizable=0;rotatable=0;deletable=0;editable=0;locked=1;connectable=0;" vertex="1" parent="JqnVkKPBpULJKnfOZd3K-182">
          <mxGeometry x="498" y="120" width="94.5" height="60" as="geometry" />
        </mxCell>
        <mxCell id="JqnVkKPBpULJKnfOZd3K-85" value="" style="edgeStyle=orthogonalEdgeStyle;rounded=0;orthogonalLoop=1;jettySize=auto;html=1;movable=0;resizable=0;rotatable=0;deletable=0;editable=0;locked=1;connectable=0;" edge="1" parent="JqnVkKPBpULJKnfOZd3K-182" source="JqnVkKPBpULJKnfOZd3K-76" target="JqnVkKPBpULJKnfOZd3K-77">
          <mxGeometry relative="1" as="geometry" />
        </mxCell>
        <mxCell id="JqnVkKPBpULJKnfOZd3K-78" value="Test features" style="rounded=0;whiteSpace=wrap;html=1;container=0;movable=0;resizable=0;rotatable=0;deletable=0;editable=0;locked=1;connectable=0;" vertex="1" parent="JqnVkKPBpULJKnfOZd3K-182">
          <mxGeometry x="498" y="220" width="94.5" height="60" as="geometry" />
        </mxCell>
        <mxCell id="JqnVkKPBpULJKnfOZd3K-87" style="edgeStyle=orthogonalEdgeStyle;rounded=0;orthogonalLoop=1;jettySize=auto;html=1;exitX=1;exitY=0.5;exitDx=0;exitDy=0;movable=0;resizable=0;rotatable=0;deletable=0;editable=0;locked=1;connectable=0;" edge="1" parent="JqnVkKPBpULJKnfOZd3K-182" source="JqnVkKPBpULJKnfOZd3K-73" target="JqnVkKPBpULJKnfOZd3K-78">
          <mxGeometry relative="1" as="geometry" />
        </mxCell>
        <mxCell id="JqnVkKPBpULJKnfOZd3K-80" value="Feature store" style="sketch=0;outlineConnect=0;fontColor=#232F3E;gradientColor=none;fillColor=#000000;strokeColor=none;dashed=0;verticalLabelPosition=bottom;verticalAlign=top;align=center;html=1;fontSize=12;fontStyle=0;aspect=fixed;pointerEvents=1;shape=mxgraph.aws4.iot_analytics_data_store;container=0;movable=0;resizable=0;rotatable=0;deletable=0;editable=0;locked=1;connectable=0;" vertex="1" parent="JqnVkKPBpULJKnfOZd3K-182">
          <mxGeometry x="650" y="111" width="54" height="78" as="geometry" />
        </mxCell>
        <mxCell id="JqnVkKPBpULJKnfOZd3K-128" value="" style="edgeStyle=orthogonalEdgeStyle;rounded=0;orthogonalLoop=1;jettySize=auto;html=1;movable=0;resizable=0;rotatable=0;deletable=0;editable=0;locked=1;connectable=0;" edge="1" parent="JqnVkKPBpULJKnfOZd3K-182" source="JqnVkKPBpULJKnfOZd3K-77" target="JqnVkKPBpULJKnfOZd3K-80">
          <mxGeometry relative="1" as="geometry" />
        </mxCell>
        <mxCell id="JqnVkKPBpULJKnfOZd3K-131" style="rounded=0;orthogonalLoop=1;jettySize=auto;html=1;exitX=1;exitY=0;exitDx=0;exitDy=0;movable=0;resizable=0;rotatable=0;deletable=0;editable=0;locked=1;connectable=0;" edge="1" parent="JqnVkKPBpULJKnfOZd3K-182" source="JqnVkKPBpULJKnfOZd3K-78" target="JqnVkKPBpULJKnfOZd3K-80">
          <mxGeometry relative="1" as="geometry" />
        </mxCell>
        <mxCell id="JqnVkKPBpULJKnfOZd3K-125" value="File system" style="sketch=0;outlineConnect=0;dashed=0;verticalLabelPosition=bottom;verticalAlign=top;align=center;html=1;fontSize=12;fontStyle=0;aspect=fixed;pointerEvents=1;shape=mxgraph.aws4.file_system;fillColor=#000000;strokeColor=#82b366;movable=0;resizable=0;rotatable=0;deletable=0;editable=0;locked=1;connectable=0;container=0;" vertex="1" parent="JqnVkKPBpULJKnfOZd3K-182">
          <mxGeometry x="638" y="213.5" width="78" height="73" as="geometry" />
        </mxCell>
        <mxCell id="JqnVkKPBpULJKnfOZd3K-149" value="" style="rounded=0;whiteSpace=wrap;html=1;fillColor=none;container=0;movable=0;resizable=0;rotatable=0;deletable=0;editable=0;locked=1;connectable=0;" vertex="1" parent="JqnVkKPBpULJKnfOZd3K-182">
          <mxGeometry x="245.25" y="103.5" width="120" height="196.5" as="geometry" />
        </mxCell>
        <mxCell id="JqnVkKPBpULJKnfOZd3K-150" style="edgeStyle=orthogonalEdgeStyle;rounded=0;orthogonalLoop=1;jettySize=auto;html=1;movable=0;resizable=0;rotatable=0;deletable=0;editable=0;locked=1;connectable=0;" edge="1" parent="JqnVkKPBpULJKnfOZd3K-182" source="JqnVkKPBpULJKnfOZd3K-149" target="JqnVkKPBpULJKnfOZd3K-125">
          <mxGeometry relative="1" as="geometry">
            <Array as="points">
              <mxPoint x="305" y="320" />
              <mxPoint x="677" y="320" />
            </Array>
          </mxGeometry>
        </mxCell>
        <mxCell id="JqnVkKPBpULJKnfOZd3K-151" value="Save transformers" style="edgeLabel;html=1;align=center;verticalAlign=middle;resizable=0;points=[];container=0;movable=0;rotatable=0;deletable=0;editable=0;locked=1;connectable=0;" vertex="1" connectable="0" parent="JqnVkKPBpULJKnfOZd3K-150">
          <mxGeometry x="-0.1015" y="3" relative="1" as="geometry">
            <mxPoint as="offset" />
          </mxGeometry>
        </mxCell>
        <mxCell id="JqnVkKPBpULJKnfOZd3K-130" style="rounded=0;orthogonalLoop=1;jettySize=auto;html=1;exitX=1;exitY=1;exitDx=0;exitDy=0;movable=0;resizable=0;rotatable=0;deletable=0;editable=0;locked=1;connectable=0;" edge="1" parent="JqnVkKPBpULJKnfOZd3K-182" source="JqnVkKPBpULJKnfOZd3K-77" target="JqnVkKPBpULJKnfOZd3K-125">
          <mxGeometry relative="1" as="geometry" />
        </mxCell>
        <mxCell id="JqnVkKPBpULJKnfOZd3K-129" value="" style="edgeStyle=orthogonalEdgeStyle;rounded=0;orthogonalLoop=1;jettySize=auto;html=1;movable=0;resizable=0;rotatable=0;deletable=0;editable=0;locked=1;connectable=0;" edge="1" parent="JqnVkKPBpULJKnfOZd3K-182" source="JqnVkKPBpULJKnfOZd3K-78" target="JqnVkKPBpULJKnfOZd3K-125">
          <mxGeometry relative="1" as="geometry" />
        </mxCell>
        <mxCell id="JqnVkKPBpULJKnfOZd3K-185" style="edgeStyle=orthogonalEdgeStyle;rounded=0;orthogonalLoop=1;jettySize=auto;html=1;entryX=0;entryY=0.5;entryDx=0;entryDy=0;strokeWidth=10;movable=0;resizable=0;rotatable=0;deletable=0;editable=0;locked=1;connectable=0;" edge="1" parent="1" source="JqnVkKPBpULJKnfOZd3K-3" target="JqnVkKPBpULJKnfOZd3K-21">
          <mxGeometry relative="1" as="geometry">
            <Array as="points">
              <mxPoint x="-320" y="640" />
            </Array>
          </mxGeometry>
        </mxCell>
        <mxCell id="JqnVkKPBpULJKnfOZd3K-189" style="edgeStyle=orthogonalEdgeStyle;rounded=0;orthogonalLoop=1;jettySize=auto;html=1;exitX=0.074;exitY=1.006;exitDx=0;exitDy=0;entryX=0;entryY=0.5;entryDx=0;entryDy=0;exitPerimeter=0;strokeWidth=10;movable=0;resizable=0;rotatable=0;deletable=0;editable=0;locked=1;connectable=0;" edge="1" parent="1" source="JqnVkKPBpULJKnfOZd3K-21" target="JqnVkKPBpULJKnfOZd3K-92">
          <mxGeometry relative="1" as="geometry" />
        </mxCell>
        <mxCell id="JqnVkKPBpULJKnfOZd3K-191" value="" style="group;movable=0;resizable=0;rotatable=0;deletable=0;editable=0;locked=1;connectable=0;" vertex="1" connectable="0" parent="1">
          <mxGeometry x="-400" y="90" width="420" height="340" as="geometry" />
        </mxCell>
        <mxCell id="JqnVkKPBpULJKnfOZd3K-3" value="&lt;h1&gt;&lt;font style=&quot;font-size: 30px;&quot;&gt;Data Ingestion&lt;/font&gt;&lt;/h1&gt;" style="rounded=0;whiteSpace=wrap;html=1;verticalAlign=top;movable=0;resizable=0;rotatable=0;deletable=0;editable=0;locked=1;connectable=0;container=0;" vertex="1" parent="JqnVkKPBpULJKnfOZd3K-191">
          <mxGeometry width="420" height="340" as="geometry" />
        </mxCell>
        <mxCell id="JqnVkKPBpULJKnfOZd3K-183" value="" style="group;movable=0;resizable=0;rotatable=0;deletable=0;editable=0;locked=1;connectable=0;" vertex="1" connectable="0" parent="JqnVkKPBpULJKnfOZd3K-191">
          <mxGeometry width="420" height="340" as="geometry" />
        </mxCell>
        <mxCell id="JqnVkKPBpULJKnfOZd3K-1" value="Data Downloader&lt;br&gt;&lt;i&gt;&lt;font color=&quot;#00cc66&quot;&gt;data_download.py&lt;/font&gt;&lt;/i&gt;" style="rounded=0;whiteSpace=wrap;html=1;movable=0;resizable=0;rotatable=0;deletable=0;editable=0;locked=1;connectable=0;container=0;" vertex="1" parent="JqnVkKPBpULJKnfOZd3K-183">
          <mxGeometry x="50" y="230" width="120" height="60" as="geometry" />
        </mxCell>
        <mxCell id="JqnVkKPBpULJKnfOZd3K-2" value="train/test split&lt;br&gt;&lt;i&gt;&lt;font color=&quot;#00cc66&quot;&gt;data_ingestion.py&lt;/font&gt;&lt;/i&gt;" style="rounded=0;whiteSpace=wrap;html=1;movable=0;resizable=0;rotatable=0;deletable=0;editable=0;locked=1;connectable=0;container=0;" vertex="1" parent="JqnVkKPBpULJKnfOZd3K-183">
          <mxGeometry x="219" y="230" width="120" height="60" as="geometry" />
        </mxCell>
        <mxCell id="JqnVkKPBpULJKnfOZd3K-14" style="edgeStyle=orthogonalEdgeStyle;rounded=0;orthogonalLoop=1;jettySize=auto;html=1;movable=0;resizable=0;rotatable=0;deletable=0;editable=0;locked=1;connectable=0;" edge="1" parent="JqnVkKPBpULJKnfOZd3K-183">
          <mxGeometry relative="1" as="geometry">
            <mxPoint x="262" y="161.5" as="sourcePoint" />
            <mxPoint x="262" y="230" as="targetPoint" />
          </mxGeometry>
        </mxCell>
        <mxCell id="JqnVkKPBpULJKnfOZd3K-18" value="Read" style="edgeLabel;html=1;align=center;verticalAlign=middle;resizable=0;points=[];movable=0;rotatable=0;deletable=0;editable=0;locked=1;connectable=0;container=0;" vertex="1" connectable="0" parent="JqnVkKPBpULJKnfOZd3K-14">
          <mxGeometry x="-0.1445" y="-2" relative="1" as="geometry">
            <mxPoint as="offset" />
          </mxGeometry>
        </mxCell>
        <mxCell id="JqnVkKPBpULJKnfOZd3K-184" value="" style="edgeStyle=orthogonalEdgeStyle;rounded=0;orthogonalLoop=1;jettySize=auto;html=1;movable=0;resizable=0;rotatable=0;deletable=0;editable=0;locked=1;connectable=0;" edge="1" parent="JqnVkKPBpULJKnfOZd3K-183" source="JqnVkKPBpULJKnfOZd3K-9" target="JqnVkKPBpULJKnfOZd3K-11">
          <mxGeometry relative="1" as="geometry">
            <Array as="points">
              <mxPoint x="220" y="128" />
              <mxPoint x="220" y="128" />
            </Array>
          </mxGeometry>
        </mxCell>
        <mxCell id="JqnVkKPBpULJKnfOZd3K-9" value="" style="sketch=0;outlineConnect=0;dashed=0;verticalLabelPosition=bottom;verticalAlign=top;align=center;html=1;fontSize=12;fontStyle=0;aspect=fixed;pointerEvents=1;shape=mxgraph.aws4.file_system;fillColor=#000000;strokeColor=#82b366;movable=0;resizable=0;rotatable=0;deletable=0;editable=0;locked=1;connectable=0;container=0;" vertex="1" parent="JqnVkKPBpULJKnfOZd3K-183">
          <mxGeometry x="240" y="88.5" width="78" height="73" as="geometry" />
        </mxCell>
        <mxCell id="JqnVkKPBpULJKnfOZd3K-12" style="rounded=0;orthogonalLoop=1;jettySize=auto;html=1;exitX=1;exitY=0;exitDx=0;exitDy=0;movable=0;resizable=0;rotatable=0;deletable=0;editable=0;locked=1;connectable=0;" edge="1" parent="JqnVkKPBpULJKnfOZd3K-183" source="JqnVkKPBpULJKnfOZd3K-1" target="JqnVkKPBpULJKnfOZd3K-9">
          <mxGeometry relative="1" as="geometry" />
        </mxCell>
        <mxCell id="JqnVkKPBpULJKnfOZd3K-16" value="Save" style="edgeLabel;html=1;align=center;verticalAlign=middle;resizable=0;points=[];movable=0;rotatable=0;deletable=0;editable=0;locked=1;connectable=0;container=0;" vertex="1" connectable="0" parent="JqnVkKPBpULJKnfOZd3K-12">
          <mxGeometry x="-0.2233" y="-1" relative="1" as="geometry">
            <mxPoint y="-1" as="offset" />
          </mxGeometry>
        </mxCell>
        <mxCell id="JqnVkKPBpULJKnfOZd3K-15" style="edgeStyle=orthogonalEdgeStyle;rounded=0;orthogonalLoop=1;jettySize=auto;html=1;exitX=0.75;exitY=0;exitDx=0;exitDy=0;movable=0;resizable=0;rotatable=0;deletable=0;editable=0;locked=1;connectable=0;" edge="1" parent="JqnVkKPBpULJKnfOZd3K-183" source="JqnVkKPBpULJKnfOZd3K-2" target="JqnVkKPBpULJKnfOZd3K-9">
          <mxGeometry relative="1" as="geometry">
            <Array as="points">
              <mxPoint x="309" y="180" />
              <mxPoint x="309" y="180" />
            </Array>
          </mxGeometry>
        </mxCell>
        <mxCell id="JqnVkKPBpULJKnfOZd3K-19" value="Save" style="edgeLabel;html=1;align=center;verticalAlign=middle;resizable=0;points=[];movable=0;rotatable=0;deletable=0;editable=0;locked=1;connectable=0;container=0;" vertex="1" connectable="0" parent="JqnVkKPBpULJKnfOZd3K-15">
          <mxGeometry x="0.0569" y="2" relative="1" as="geometry">
            <mxPoint y="-2" as="offset" />
          </mxGeometry>
        </mxCell>
        <mxCell id="JqnVkKPBpULJKnfOZd3K-13" style="edgeStyle=orthogonalEdgeStyle;rounded=0;orthogonalLoop=1;jettySize=auto;html=1;entryX=0.5;entryY=0;entryDx=0;entryDy=0;movable=0;resizable=0;rotatable=0;deletable=0;editable=0;locked=1;connectable=0;" edge="1" parent="JqnVkKPBpULJKnfOZd3K-183" source="JqnVkKPBpULJKnfOZd3K-11" target="JqnVkKPBpULJKnfOZd3K-1">
          <mxGeometry relative="1" as="geometry" />
        </mxCell>
        <mxCell id="JqnVkKPBpULJKnfOZd3K-17" value="Download" style="edgeLabel;html=1;align=center;verticalAlign=middle;resizable=0;points=[];movable=0;rotatable=0;deletable=0;editable=0;locked=1;connectable=0;container=0;" vertex="1" connectable="0" parent="JqnVkKPBpULJKnfOZd3K-13">
          <mxGeometry x="0.0015" y="-1" relative="1" as="geometry">
            <mxPoint y="10" as="offset" />
          </mxGeometry>
        </mxCell>
        <mxCell id="JqnVkKPBpULJKnfOZd3K-11" value="Telco Customer Churn Dataset" style="image;aspect=fixed;html=1;points=[];align=center;fontSize=12;image=img/lib/azure2/general/Website_Power.svg;movable=0;resizable=0;rotatable=0;deletable=0;editable=0;locked=1;connectable=0;container=0;" vertex="1" parent="JqnVkKPBpULJKnfOZd3K-183">
          <mxGeometry x="76" y="93.5" width="68" height="68" as="geometry" />
        </mxCell>
        <mxCell id="JqnVkKPBpULJKnfOZd3K-22" value="File System" style="text;html=1;strokeColor=none;fillColor=none;align=center;verticalAlign=middle;whiteSpace=wrap;rounded=0;movable=0;resizable=0;rotatable=0;deletable=0;editable=0;locked=1;connectable=0;container=0;" vertex="1" parent="JqnVkKPBpULJKnfOZd3K-183">
          <mxGeometry x="243.5" y="63.5" width="71" height="30" as="geometry" />
        </mxCell>
        <mxCell id="JqnVkKPBpULJKnfOZd3K-192" style="edgeStyle=orthogonalEdgeStyle;rounded=0;orthogonalLoop=1;jettySize=auto;html=1;exitX=0.07;exitY=1.004;exitDx=0;exitDy=0;entryX=0;entryY=0.5;entryDx=0;entryDy=0;exitPerimeter=0;strokeWidth=10;movable=0;resizable=0;rotatable=0;deletable=0;editable=0;locked=1;connectable=0;" edge="1" parent="1" source="JqnVkKPBpULJKnfOZd3K-92" target="JqnVkKPBpULJKnfOZd3K-145">
          <mxGeometry relative="1" as="geometry" />
        </mxCell>
        <mxCell id="JqnVkKPBpULJKnfOZd3K-200" value="" style="group;movable=0;resizable=0;rotatable=0;deletable=0;editable=0;locked=1;connectable=0;" vertex="1" connectable="0" parent="1">
          <mxGeometry x="660" y="850" width="290" height="270" as="geometry" />
        </mxCell>
        <mxCell id="JqnVkKPBpULJKnfOZd3K-196" value="&lt;h1&gt;&lt;font style=&quot;font-size: 30px;&quot;&gt;Flask Application&lt;/font&gt;&lt;/h1&gt;&lt;div&gt;&lt;i&gt;&lt;font color=&quot;#00cc66&quot;&gt;app.py&lt;/font&gt;&lt;/i&gt;&lt;/div&gt;" style="rounded=0;whiteSpace=wrap;html=1;verticalAlign=top;movable=0;resizable=0;rotatable=0;deletable=0;editable=0;locked=1;connectable=0;" vertex="1" parent="JqnVkKPBpULJKnfOZd3K-200">
          <mxGeometry width="290.00000000000006" height="270" as="geometry" />
        </mxCell>
        <mxCell id="JqnVkKPBpULJKnfOZd3K-195" value="" style="verticalLabelPosition=bottom;html=1;verticalAlign=top;align=center;strokeColor=none;fillColor=#000000;shape=mxgraph.azure.service_endpoint;flipH=0;movable=0;resizable=0;rotatable=0;deletable=0;editable=0;locked=1;connectable=0;" vertex="1" parent="JqnVkKPBpULJKnfOZd3K-200">
          <mxGeometry x="34.80000000000001" y="120" width="58.00000000000001" height="20" as="geometry" />
        </mxCell>
        <mxCell id="JqnVkKPBpULJKnfOZd3K-197" value="/reload" style="text;html=1;strokeColor=none;fillColor=none;align=center;verticalAlign=middle;whiteSpace=wrap;rounded=0;fontSize=31;movable=0;resizable=0;rotatable=0;deletable=0;editable=0;locked=1;connectable=0;" vertex="1" parent="JqnVkKPBpULJKnfOZd3K-200">
          <mxGeometry x="92.80000000000001" y="97.5" width="162.40000000000003" height="65" as="geometry" />
        </mxCell>
        <mxCell id="JqnVkKPBpULJKnfOZd3K-198" value="" style="verticalLabelPosition=bottom;html=1;verticalAlign=top;align=center;strokeColor=none;fillColor=#000000;shape=mxgraph.azure.service_endpoint;flipH=0;movable=0;resizable=0;rotatable=0;deletable=0;editable=0;locked=1;connectable=0;" vertex="1" parent="JqnVkKPBpULJKnfOZd3K-200">
          <mxGeometry x="34.80000000000001" y="192.5" width="58.00000000000001" height="20" as="geometry" />
        </mxCell>
        <mxCell id="JqnVkKPBpULJKnfOZd3K-199" value="/predict" style="text;html=1;strokeColor=none;fillColor=none;align=center;verticalAlign=middle;whiteSpace=wrap;rounded=0;fontSize=31;movable=0;resizable=0;rotatable=0;deletable=0;editable=0;locked=1;connectable=0;" vertex="1" parent="JqnVkKPBpULJKnfOZd3K-200">
          <mxGeometry x="92.80000000000001" y="170" width="162.40000000000003" height="65" as="geometry" />
        </mxCell>
        <mxCell id="JqnVkKPBpULJKnfOZd3K-201" style="edgeStyle=orthogonalEdgeStyle;rounded=0;orthogonalLoop=1;jettySize=auto;html=1;entryX=0.995;entryY=0.63;entryDx=0;entryDy=0;entryPerimeter=0;strokeWidth=10;movable=0;resizable=0;rotatable=0;deletable=0;editable=0;locked=1;connectable=0;" edge="1" parent="1" source="JqnVkKPBpULJKnfOZd3K-196" target="JqnVkKPBpULJKnfOZd3K-170">
          <mxGeometry relative="1" as="geometry">
            <Array as="points">
              <mxPoint x="810" y="1423" />
            </Array>
          </mxGeometry>
        </mxCell>
        <mxCell id="JqnVkKPBpULJKnfOZd3K-202" value="&lt;h1&gt;Client&lt;/h1&gt;" style="points=[[0.03,0.03,0],[0.5,0,0],[0.97,0.03,0],[1,0.4,0],[0.97,0.745,0],[0.5,1,0],[0.03,0.745,0],[0,0.4,0]];verticalLabelPosition=bottom;sketch=0;html=1;verticalAlign=top;aspect=fixed;align=left;pointerEvents=1;shape=mxgraph.cisco19.workstation;fillColor=#000000;strokeColor=none;horizontal=1;movable=0;resizable=0;rotatable=0;deletable=0;editable=0;locked=1;connectable=0;" vertex="1" parent="1">
          <mxGeometry x="717.5" y="460" width="175" height="140" as="geometry" />
        </mxCell>
        <mxCell id="JqnVkKPBpULJKnfOZd3K-203" value="" style="endArrow=classic;html=1;rounded=0;entryX=0.5;entryY=0;entryDx=0;entryDy=0;exitX=0.5;exitY=1;exitDx=0;exitDy=0;exitPerimeter=0;strokeWidth=6;movable=0;resizable=0;rotatable=0;deletable=0;editable=0;locked=1;connectable=0;" edge="1" parent="1" source="JqnVkKPBpULJKnfOZd3K-202" target="JqnVkKPBpULJKnfOZd3K-196">
          <mxGeometry relative="1" as="geometry">
            <mxPoint x="710" y="690" as="sourcePoint" />
            <mxPoint x="810" y="690" as="targetPoint" />
          </mxGeometry>
        </mxCell>
        <mxCell id="JqnVkKPBpULJKnfOZd3K-204" value="" style="shape=message;html=1;outlineConnect=0;strokeWidth=3;align=right;horizontal=1;movable=0;resizable=0;rotatable=0;deletable=0;editable=0;locked=1;connectable=0;" vertex="1" parent="JqnVkKPBpULJKnfOZd3K-203">
          <mxGeometry width="80" height="70" relative="1" as="geometry">
            <mxPoint x="-40" y="-24" as="offset" />
          </mxGeometry>
        </mxCell>
      </root>
    </mxGraphModel>
  </diagram>
</mxfile>
